<?xml version="1.0" encoding="UTF-8" standalone="no"?>
<!-- Created with Inkscape (http://www.inkscape.org/) -->

<svg
   version="1.1"
   id="svg2"
   width="125"
   height="125"
   viewBox="0 0 125 125"
   sodipodi:docname="logo-meas.svg"
   inkscape:version="1.2.2 (732a01da63, 2022-12-09)"
   inkscape:export-filename="..\..\..\..\Users\m00536784\Pictures\logo-meas.png"
   inkscape:export-xdpi="218.18182"
   inkscape:export-ydpi="218.18182"
   xmlns:inkscape="http://www.inkscape.org/namespaces/inkscape"
   xmlns:sodipodi="http://sodipodi.sourceforge.net/DTD/sodipodi-0.dtd"
   xmlns="http://www.w3.org/2000/svg"
   xmlns:svg="http://www.w3.org/2000/svg"
   xmlns:rdf="http://www.w3.org/1999/02/22-rdf-syntax-ns#"
   xmlns:cc="http://creativecommons.org/ns#"
   xmlns:dc="http://purl.org/dc/elements/1.1/">
  <metadata
     id="metadata8">
    <rdf:RDF>
      <cc:Work
         rdf:about="">
        <dc:format>image/svg+xml</dc:format>
        <dc:type
           rdf:resource="http://purl.org/dc/dcmitype/StillImage" />
      </cc:Work>
    </rdf:RDF>
  </metadata>
  <defs
     id="defs6" />
  <sodipodi:namedview
     pagecolor="#ffffff"
     bordercolor="#666666"
     borderopacity="1"
     objecttolerance="10"
     gridtolerance="10"
     guidetolerance="10"
     inkscape:pageopacity="0"
     inkscape:pageshadow="2"
     inkscape:window-width="1920"
     inkscape:window-height="1009"
     id="namedview4"
     showgrid="false"
     inkscape:zoom="4"
     inkscape:cx="96.75"
     inkscape:cy="62.75"
     inkscape:window-x="-8"
     inkscape:window-y="-8"
     inkscape:window-maximized="1"
     inkscape:current-layer="svg2"
     inkscape:showpageshadow="2"
     inkscape:pagecheckerboard="0"
     inkscape:deskcolor="#d1d1d1" />
  <rect
     style="fill:#ffffff;stroke-width:1.51999;stop-color:#000000"
     id="rect516"
     width="167.5"
     height="151"
     x="-20"
     y="-9.25"
     ry="31.601292"
     inkscape:export-filename="..\..\..\..\Users\m00536784\Pictures\logo-meas.png"
     inkscape:export-xdpi="218.18182"
     inkscape:export-ydpi="218.18182" />
  <path
     style="fill:#000000"
     d="m 32.1504,105.85727 c -9.92223,1.64642 -13.33189,-6.42362 -13.19008,-9.58334 0.30158,-6.719427 6.34576,-11.824892 13.40485,-10.766315 3.8011,0.57001 4.42986,0.327872 7.57511,-2.917196 L 43.37022,79.051616 40.9134,77.406987 C 37.12579,74.871508 26.95658,64.300302 26.95658,62.898449 c 0,-2.630226 13.52182,-14.465747 20.387263,-17.844782 5.95297,-2.929932 7.91996,-3.395896 14.5,-3.434922 4.18701,-0.02483 9.55003,0.597558 11.91783,1.38309 l 4.3051,1.428242 3.6949,-3.695855 c 3.42487,-3.425747 3.69491,-4.127107 3.69491,-9.596602 0,-4.858722 0.42558,-6.35394 2.40993,-8.467077 4.82631,-5.139519 13.520527,-4.218098 17.204597,1.82336 5.01435,8.222948 -1.69223,17.619902 -11.523117,16.14567 -3.81062,-0.571438 -4.42546,-0.331673 -7.61828,2.970795 -3.32727,3.441529 -3.38913,3.637262 -1.47313,4.660601 2.85993,1.527491 14.499998,13.474661 14.499998,14.882556 0,0.649347 -3.098748,4.224561 -6.886118,7.944921 -9.51318,9.344858 -17.87467,13.334943 -28.11388,13.415871 -4.125,0.0326 -9.42727,-0.580125 -11.78282,-1.361616 l -4.28283,-1.420894 -3.99407,3.900109 c -3.722043,3.634469 -3.951803,4.182022 -3.373393,8.039174 0.92864,7.63702 -6.21481,11.82806 -8.37307,12.18618 z M 71.956583,77.86653 c 4.89243,-1.428107 11.78033,-5.94393 16.5,-10.817681 l 4,-4.130582 -5.64745,-5.283489 C 71.299813,43.125003 54.441583,43.152448 39.10404,57.712438 l -5.64746,5.361153 5.64746,5.361153 c 10.643003,10.103444 20.679923,12.984989 32.852543,9.431783 z m -14.23743,-5.358324 c -3.10545,-1.685002 -5.76257,-6.174755 -5.76257,-9.737069 0,-1.320977 1.02065,-3.916319 2.26811,-5.767427 4.29038,-6.366483 13.17341,-6.366483 17.46378,0 2.6488,3.930551 2.85835,7.027803 0.75118,11.102617 -2.7675,5.351773 -9.34494,7.318626 -14.7205,4.401879 z m 33.49375,33.536564 c -3.62907,-1.45904 -6.4368,-6.85421 -5.89081,-11.31947 1.24252,-10.16169 14.412068,-12.983381 19.749017,-4.231397 2.27664,3.733427 2.38042,6.721877 0.36854,10.612427 -2.56791,4.9658 -8.788139,7.12498 -14.226747,4.93844 z m 9.992897,-9.7774 c 0.13947,-2.01088 -1.943119,-5.308765 -5.314957,-5.193776 -2.91437,0.09939 -4.83428,3.275546 -4.72941,5.509666 0.0724,1.54147 2.10339,4.88796 5.06859,4.85612 2.754128,-0.0296 4.818027,-2.89772 4.975777,-5.17201 z M 25.08107,39.64927 C 21.452,38.190232 18.7761,33.190556 19.32209,28.725301 20.56461,18.56361 33.73416,15.741919 39.07111,24.493903 c 2.27664,3.733427 2.38042,6.721878 0.36855,10.612424 -2.56792,4.965799 -8.91998,6.729488 -14.35859,4.542943 z m 8.74143,-6.50076 c 2.09266,-2.092654 1.75568,-5.880662 -0.90336,-7.622935 -2.80367,-1.837037 -6.09981,-1.534473 -7.94479,1.912911 -1.14827,2.145551 -0.52428,4.763483 1.33161,6.118548 2.06995,1.511361 5.55979,1.548226 7.51654,-0.408524 z"
     id="path9775"
     inkscape:connector-curvature="0"
     sodipodi:nodetypes="sssccsssssccsccssssssscccscscsscsccsscscsssssssssssssscscsssc" />
  <g
     id="g4531"
     transform="matrix(1.2765073,0,0,1.2765073,318.41306,15.855483)">
    <path
       style="fill:#1228cc;fill-opacity:1;stroke-width:0.133929"
       d="m -201.53027,47.80054 c -0.16425,-0.113666 -0.46432,-0.696681 -0.72208,-1.402971 -0.76575,-2.098158 -1.01064,-2.207547 -2.98036,-1.331266 -0.65833,0.292872 -1.36524,0.532495 -1.57093,0.532495 -0.52721,0 -2.18572,-1.643866 -2.18572,-2.166422 0,-0.199411 0.24253,-0.894735 0.53896,-1.545165 0.58868,-1.291687 0.66661,-1.857336 0.30095,-2.184284 -0.1309,-0.117045 -0.81302,-0.427498 -1.51582,-0.689896 -0.7028,-0.262399 -1.38393,-0.601896 -1.51361,-0.754439 -0.34188,-0.402125 -0.34188,-2.622935 0,-3.025061 0.12968,-0.152542 0.81081,-0.492039 1.51361,-0.754437 0.7028,-0.262399 1.38492,-0.572853 1.51582,-0.689899 0.36566,-0.326947 0.28773,-0.892597 -0.30095,-2.184283 -0.74199,-1.628094 -0.72759,-1.736623 0.37392,-2.816572 1.10547,-1.083841 1.25816,-1.103197 2.85984,-0.36252 1.25054,0.578301 1.86187,0.660727 2.19589,0.296074 0.11911,-0.130032 0.43534,-0.803972 0.70274,-1.497643 0.26741,-0.693672 0.6105,-1.366057 0.76243,-1.494189 0.22,-0.185524 0.53084,-0.232966 1.52642,-0.232966 1.5515,0 1.66986,0.08388 2.21869,1.572227 0.46103,1.250244 0.65302,1.646069 0.86682,1.787111 0.32061,0.211515 0.97264,0.07896 2.11805,-0.430614 0.65833,-0.292872 1.36525,-0.532495 1.57093,-0.532495 0.5272,0 2.18572,1.643867 2.18572,2.166421 0,0.199413 -0.24253,0.894737 -0.53896,1.545166 -0.58868,1.291686 -0.66661,1.857336 -0.30095,2.184283 0.1309,0.117046 0.81302,0.4275 1.51582,0.689899 0.7028,0.262398 0.7028,4.271538 0,4.533937 -0.7028,0.262398 -1.38492,0.572851 -1.51582,0.689896 -0.36566,0.326948 -0.28773,0.892597 0.30095,2.184284 0.74199,1.628094 0.72758,1.736623 -0.37392,2.816572 -1.10547,1.083841 -1.25816,1.103197 -2.85984,0.36252 -1.92203,-0.88882 -2.19953,-0.764194 -2.96428,1.331266 -0.25778,0.70629 -0.55784,1.289305 -0.7221,1.402971 -0.19624,0.135805 -0.64917,0.194487 -1.50111,0.194487 -0.85193,0 -1.30486,-0.05869 -1.50111,-0.194487 z m 2.87788,-8.106339 c 1.27097,-0.649358 1.84709,-1.569225 1.85299,-2.958579 0.003,-0.819923 -0.0491,-1.027399 -0.40415,-1.597486 -1.34456,-2.15837 -4.30665,-2.15837 -5.65122,0 -0.35349,0.567451 -0.40814,0.781356 -0.40809,1.597486 4e-5,0.759672 0.0653,1.056108 0.33685,1.529464 0.39345,0.685926 1.10024,1.284574 1.83612,1.555173 0.63284,0.232712 1.85946,0.169278 2.4375,-0.126058 z"
       id="path4557"
       inkscape:connector-curvature="0"
       sodipodi:nodetypes="scsssssssssscssscssssssssssssssssssssccsscss" />
    <path
       style="fill:#190ec0;fill-opacity:1;stroke-width:0.132961"
       d="m -201.64695,47.933364 c -0.15122,-0.106175 -0.2545,-0.691619 -0.41996,-1.152885 -0.62388,-1.739325 -0.8541,-2.119776 -1.21893,-2.215995 -0.49563,-0.130716 -0.79686,0.05438 -2.06445,0.641431 -0.62259,0.288345 -1.28611,0.524263 -1.47449,0.524263 -0.50241,0 -2.17586,-1.64203 -2.17586,-2.135012 0,-0.198396 0.23904,-0.900567 0.5312,-1.560378 0.87167,-1.968615 0.99122,-2.307697 -1.10298,-3.064677 -0.70456,-0.254675 -1.5112,-0.447282 -1.62458,-0.609564 -0.26917,-0.385236 -0.27024,-2.579449 -9.8e-4,-2.96415 0.10591,-0.151585 0.56906,-0.41131 1.02919,-0.577165 1.73436,-0.625143 2.09732,-0.821554 2.1939,-1.187198 0.123,-0.465658 0.0984,-0.559573 -0.50498,-1.929953 -0.28616,-0.649903 -0.52031,-1.343967 -0.52031,-1.542364 0,-0.504504 1.67395,-2.135012 2.1919,-2.135012 0.19719,0 0.86863,0.239623 1.49208,0.532495 1.07424,0.504636 1.77994,0.648925 2.10609,0.430615 0.2107,-0.141043 0.39993,-0.536868 0.85432,-1.787113 0.53996,-1.485706 0.65948,-1.572226 2.17189,-1.572226 1.48991,0 1.66616,0.10438 2.06802,1.224754 0.62388,1.739326 0.81948,2.102465 1.18429,2.198683 0.49563,0.130718 0.6757,0.08411 1.94329,-0.502945 0.6226,-0.288345 1.28612,-0.524263 1.47449,-0.524263 0.50241,0 2.17587,1.642031 2.17587,2.135012 0,0.198397 -0.23416,0.892461 -0.52032,1.542364 -0.60341,1.37038 -0.62798,1.464295 -0.50498,1.929953 0.0966,0.365644 0.45954,0.562055 2.19391,1.187198 0.46014,0.165855 0.92326,0.42558 1.02918,0.577165 0.2688,0.384701 0.26773,2.578914 -9.8e-4,2.96415 -0.11339,0.162282 -0.69497,0.458753 -1.39954,0.713428 -2.0942,0.75698 -2.1997,0.992198 -1.32802,2.960813 0.29216,0.659811 0.53119,1.352186 0.53119,1.53861 0,0.498277 -1.67783,2.15678 -2.18192,2.15678 -0.20268,0 -0.76609,-0.490626 -1.38954,-0.783498 -1.07424,-0.504637 -1.89245,-0.397922 -2.2186,-0.179611 -0.21071,0.141042 -0.39994,0.536868 -0.85433,1.787113 -0.53996,1.485705 -0.65948,1.572225 -2.17189,1.572225 -0.84853,0 -1.30062,-0.05849 -1.49225,-0.193043 z m 2.76807,-4.23223 c 0.75914,-1.483169 0.8791,-1.646431 1.33436,-1.816084 0.53606,-0.199773 0.6041,-0.183128 3.24877,0.794805 l 0.82743,0.305962 0.32614,-0.307147 0.32615,-0.307148 -0.32358,-0.733466 c -0.3831,-0.868367 -0.40687,-1.398631 -0.091,-2.028922 0.29803,-0.594651 0.82889,-0.943535 2.15362,-1.415374 l 1.06654,-0.379885 v -0.936433 -0.936434 l -1.06654,-0.379885 c -1.32473,-0.471838 -1.85559,-0.820723 -2.15362,-1.415374 -0.3483,-0.694948 -0.28661,-1.206574 0.2986,-2.476341 0.29215,-0.633921 0.53119,-1.221592 0.53119,-1.305935 0,-0.192093 -1.08819,-1.273777 -1.28144,-1.273777 -0.0784,0 -0.65268,0.239624 -1.27612,0.532495 -1.28368,0.603026 -1.93065,0.669722 -2.58961,0.266967 -0.54164,-0.331058 -0.85186,-0.838325 -1.3195,-2.15769 l -0.3679,-1.038001 h -0.93416 -0.93414 l -0.37895,1.069158 c -0.47069,1.327968 -0.81873,1.860124 -1.41193,2.158888 -0.69245,0.348755 -1.20447,0.287565 -2.50468,-0.299322 -0.64884,-0.292871 -1.22931,-0.532495 -1.28995,-0.532495 -0.16987,0 -1.24908,1.100536 -1.24908,1.273777 0,0.08434 0.23905,0.672014 0.5312,1.305935 0.5852,1.269767 0.6469,1.781393 0.2986,2.476341 -0.29803,0.594651 -0.8289,0.943536 -2.15362,1.415374 l -1.06654,0.379885 v 0.936434 0.936433 l 1.06654,0.379885 c 1.32472,0.471839 1.85559,0.820723 2.15362,1.415374 0.31589,0.630291 0.29212,1.160555 -0.091,2.028922 l -0.32359,0.733466 0.29895,0.281527 c 0.16441,0.154841 0.35132,0.281528 0.41534,0.281528 0.0641,0 0.8593,-0.280175 1.7673,-0.62261 1.61265,-0.608183 1.66361,-0.618209 2.19902,-0.432654 0.51925,0.179953 0.59205,0.275852 1.38225,1.820727 0.82206,1.607204 0.84071,1.630766 1.29064,1.630766 0.4499,0 0.46866,-0.02371 1.29065,-1.629672 z m -2.03393,-2.635705 c -1.29571,-0.211848 -2.44259,-1.084587 -3.04962,-2.32066 -0.80788,-1.645046 -0.49017,-3.564345 0.80493,-4.862615 1.65699,-1.661053 4.31896,-1.661053 5.97595,0 1.65177,1.655821 1.65177,4.334755 0,5.990575 -0.96504,0.967392 -2.36746,1.415679 -3.73126,1.1927 z m 2.21368,-1.298864 c 0.60893,-0.313843 1.12284,-0.83673 1.46571,-1.491323 0.33502,-0.639608 0.33502,-2.155992 0,-2.7956 -0.63738,-1.216865 -1.57668,-1.789266 -2.93611,-1.789266 -1.03469,0 -1.72545,0.278734 -2.34201,0.945048 -0.63083,0.681747 -0.83814,1.236283 -0.83814,2.242018 0,1.560214 0.80013,2.64672 2.31611,3.145074 0.52731,0.173349 1.76473,0.03768 2.33444,-0.255951 z"
       id="path4555"
       inkscape:connector-curvature="0"
       sodipodi:nodetypes="ccsssscscccssssscsscssssccsscsssssssscccsscccscscccsscssssccccssssscsscccsscccssscsccssssssssssssss" />
    <path
       style="fill:#000000;fill-opacity:1;stroke-width:0.136925"
       d="m -201.68337,47.924886 c -0.11537,-0.131699 -0.40773,-0.793619 -0.64972,-1.470933 -0.45149,-1.263752 -0.89077,-1.847217 -1.3907,-1.847217 -0.15076,0 -0.91968,0.280718 -1.70873,0.623818 -0.83401,0.362647 -1.53967,0.590527 -1.68552,0.544302 -0.3394,-0.107572 -2.07128,-1.912683 -2.07128,-2.158866 0,-0.108004 0.27648,-0.806697 0.61439,-1.552652 0.33792,-0.745957 0.61538,-1.491392 0.6166,-1.656523 0.004,-0.511866 -0.5635,-0.944763 -1.84758,-1.409944 -1.74239,-0.631215 -1.71277,-0.59216 -1.71277,-2.257914 0,-1.665754 -0.0296,-1.626699 1.71277,-2.257915 1.28408,-0.465182 1.85135,-0.898077 1.84758,-1.409943 -0.001,-0.165131 -0.28132,-0.915979 -0.62245,-1.668549 -0.36716,-0.809952 -0.59155,-1.483206 -0.54989,-1.649873 0.089,-0.356185 1.89958,-2.112978 2.17763,-2.112978 0.11418,0 0.82112,0.277083 1.57099,0.61574 0.74987,0.338655 1.4914,0.615739 1.64786,0.615739 0.4976,0 0.93496,-0.578857 1.39574,-1.847218 0.6321,-1.739971 0.59299,-1.710387 2.26106,-1.710387 1.67012,0 1.63512,-0.02653 2.25568,1.710387 0.45925,1.285462 0.89203,1.848862 1.41728,1.845016 0.16535,-0.0012 0.91183,-0.278293 1.65882,-0.615739 0.74699,-0.337446 1.44665,-0.613538 1.55481,-0.613538 0.27004,0 2.07964,1.764755 2.16669,2.112978 0.0416,0.166667 -0.18275,0.839921 -0.54989,1.649873 -0.34114,0.75257 -0.62125,1.503418 -0.62246,1.668549 -0.004,0.511866 0.61585,0.814081 1.89992,1.279263 1.7424,0.631216 1.8698,0.722841 1.8698,2.388595 0,1.665754 -0.20595,1.757379 -1.94832,2.388594 -1.28407,0.465181 -1.82516,0.767398 -1.8214,1.279264 0.001,0.165131 0.28132,0.915979 0.62246,1.668549 0.36714,0.809953 0.59154,1.483204 0.54989,1.649873 -0.089,0.356185 -1.89959,2.112977 -2.17765,2.112977 -0.11418,0 -0.82112,-0.277082 -1.57098,-0.615739 -0.74985,-0.338656 -1.49141,-0.615739 -1.64787,-0.615739 -0.49759,0 -0.93496,0.578857 -1.39573,1.847217 -0.63209,1.739972 -0.59299,1.710388 -2.26105,1.710388 -1.15852,0 -1.43197,-0.04077 -1.60598,-0.239455 z m 3.02998,-1.710386 c 0.5705,-1.532181 0.70224,-1.757627 1.23744,-2.1178 0.68609,-0.46171 1.33408,-0.402615 2.83852,0.258858 l 1.29597,0.569808 0.67842,-0.667287 c 0.37313,-0.367009 0.67841,-0.715699 0.67841,-0.774867 0,-0.05917 -0.24663,-0.654568 -0.54809,-1.32311 -0.64076,-1.421071 -0.69727,-2.080894 -0.2367,-2.763396 0.36068,-0.534462 0.58643,-0.666008 2.12075,-1.235726 l 1.13043,-0.419746 V 36.738957 35.73668 l -1.13043,-0.419747 c -1.53432,-0.569717 -1.76007,-0.701264 -2.12075,-1.235726 -0.46234,-0.685129 -0.40317,-1.332231 0.25922,-2.834583 l 0.5706,-1.294159 -0.66821,-0.677475 c -0.36751,-0.372611 -0.7167,-0.677474 -0.77594,-0.677474 -0.0592,0 -0.65548,0.246295 -1.32495,0.547324 -1.42305,0.639873 -2.0838,0.696313 -2.76725,0.236374 -0.5352,-0.360174 -0.66694,-0.585619 -1.23744,-2.1178 l -0.42034,-1.128855 h -1.00366 -1.00368 l -0.42033,1.128855 c -0.57051,1.532181 -0.70223,1.757626 -1.23744,2.1178 -0.68608,0.461709 -1.33409,0.402615 -2.83853,-0.258859 l -1.29596,-0.569808 -0.67842,0.667288 c -0.37312,0.367008 -0.67841,0.715698 -0.67841,0.774867 0,0.05917 0.24663,0.654569 0.54808,1.32311 0.64076,1.421069 0.69728,2.080893 0.23671,2.763395 -0.36069,0.534462 -0.58644,0.666009 -2.12076,1.235726 l -1.13041,0.419747 v 1.002276 1.002278 l 1.13041,0.419746 c 1.53432,0.569718 1.76007,0.701264 2.12076,1.235726 0.46234,0.68513 0.40317,1.332232 -0.25923,2.834584 l -0.5706,1.294159 0.66823,0.677474 c 0.36751,0.372612 0.71669,0.677475 0.77594,0.677475 0.0592,0 0.65548,-0.246296 1.32494,-0.547324 1.42306,-0.639873 2.0838,-0.696313 2.76725,-0.236374 0.53521,0.360173 0.66693,0.585619 1.23744,2.1178 l 0.42033,1.128855 h 1.00368 1.00366 z m -2.39543,-5.313168 c -2.02593,-0.481884 -3.53089,-2.584962 -3.28071,-4.584571 0.11493,-0.918488 0.77208,-2.254528 1.34838,-2.741305 1.29989,-1.097974 3.16676,-1.38829 4.61653,-0.717909 1.08456,0.501514 1.57605,0.972886 2.07973,1.994592 0.78752,1.59743 0.55163,3.397818 -0.62757,4.79006 -0.81535,0.962636 -2.81885,1.572516 -4.13636,1.259133 z m 2.62325,-1.403944 c -0.7762,-2.558563 1.87004,-3.772942 -0.23065,-5.069701 -2.49359,-1.539534 -4.2287,-0.05825 -3.81949,2.869609 0.11671,0.834984 0.36447,1.22785 1.13564,1.703969 1.1396,0.703582 1.25106,-0.359966 2.4468,0.682134 z"
       id="path4535"
       inkscape:connector-curvature="0"
       sodipodi:nodetypes="ssssssscssscscssssssssssscssscscssssssssscssssscccsssccsssscccsssccsssscccssscsscsscccssssssssccsscc" />
  </g>
</svg>
